<svg width="201" height="76" viewBox="0 0 201 76" fill="none" xmlns="http://www.w3.org/2000/svg">
<g clip-path="url(#clip0_217_22)">
<path d="M105.932 19.0954C105.932 21.8344 104.111 24.0399 101.851 24.0399C99.5907 24.0399 97.7708 21.8344 97.7708 19.0954C97.7708 16.3564 99.5286 14.1509 101.851 14.1509C104.175 14.2269 105.932 16.4332 105.932 19.0954ZM89.108 29.0619V30.2794C89.108 30.2794 87.1627 27.2348 83.0194 27.2348C76.1776 27.2348 70.8409 33.5496 70.8409 42.2978C70.8409 50.9707 76.1149 57.3606 83.0194 57.3606C87.2254 57.3606 89.108 54.2417 89.108 54.2417V55.5344C89.108 56.1432 89.4855 56.5984 89.9872 56.5984H95.0711V27.9933H89.9872C89.4855 27.9956 89.108 28.5291 89.108 29.0619ZM89.108 47.395C88.1673 49.0692 86.2835 50.5147 84.024 50.5147C80.0068 50.5147 76.9302 47.4717 76.9302 42.2978C76.9302 37.1245 80.0068 34.0816 84.024 34.0816C86.2214 34.0816 88.23 35.603 89.108 37.2005V47.395ZM98.8382 27.9956H104.864V56.6007H98.8382V27.9956ZM188.856 27.2341C184.713 27.2341 182.766 30.2786 182.766 30.2786V14.227H176.741V56.6007H181.826C182.328 56.6007 182.704 56.0679 182.704 55.5352V54.2424C182.704 54.2424 184.65 57.3614 188.792 57.3614C195.635 57.3614 200.971 50.973 200.971 42.3C200.971 33.6271 195.635 27.2341 188.856 27.2341ZM187.852 50.438C185.528 50.438 183.708 48.994 182.766 47.319V37.1245C183.708 35.603 185.717 34.0056 187.852 34.0056C191.869 34.0056 194.945 37.0485 194.945 42.2218C194.945 47.395 191.87 50.438 187.852 50.438ZM173.603 39.6363V56.6767H167.575V40.4723C167.575 35.7566 166.32 33.8536 162.932 33.8536C161.112 33.8536 159.229 34.9951 158.034 36.6693V56.6014H152.009V27.9964H156.779C157.281 27.9964 157.658 28.5291 157.658 29.0619V30.2794C159.415 28.0724 161.738 27.2348 164.06 27.2348C166.697 27.2348 168.894 28.1491 170.652 29.9746C172.785 32.1048 173.603 34.8431 173.603 39.6363ZM137.381 27.2341C133.239 27.2341 131.292 30.2786 131.292 30.2786V14.227H125.266V56.6007H130.35C130.853 56.6007 131.23 56.0679 131.23 55.5352V54.2424C131.23 54.2424 133.176 57.3614 137.318 57.3614C144.161 57.3614 149.497 50.973 149.497 42.3C149.559 33.6263 144.224 27.2341 137.381 27.2341ZM136.376 50.438C134.054 50.438 132.234 48.994 131.292 47.319V37.1245C132.234 35.603 134.243 34.0056 136.376 34.0056C140.395 34.0056 143.47 37.0485 143.47 42.2218C143.47 47.395 140.395 50.438 136.376 50.438ZM120.056 27.2341C121.876 27.2341 122.817 27.6156 122.817 27.6156V34.3855C122.817 34.3855 117.796 32.3313 114.658 36.6685V56.6759H108.63V27.9956H113.716C114.218 27.9956 114.594 28.5284 114.594 29.0611V30.2786C115.725 28.6803 118.173 27.2341 120.056 27.2341ZM57.471 54.0137C57.1575 53.101 56.8433 52.1122 56.5297 51.2747C56.0268 49.906 55.5245 48.6117 55.0861 47.395L55.0234 47.319C50.6914 35.907 46.047 24.3446 41.1499 12.9342L40.9618 12.4767C40.4467 11.293 39.9448 10.101 39.4561 8.90098C38.8277 7.53073 38.2006 6.08675 37.196 4.71649C35.1874 1.67351 32.2995 -0.000732422 29.2242 -0.000732422C26.0849 -0.000732422 23.2604 1.67352 21.1897 4.56375C20.2478 5.93248 19.5567 7.37798 18.9296 8.74823C18.4397 9.94749 17.9378 11.1395 17.4239 12.3239L17.2352 12.7815C12.4014 24.1919 7.69374 35.755 3.3623 47.1662L3.29898 47.3175C2.86 48.5365 2.35706 49.8292 1.85474 51.1972C1.54119 52.0347 1.22764 52.9474 0.914082 53.9362C0.0975886 56.7504 -0.153894 59.4134 0.160914 62.1531C0.85136 67.8591 3.98941 72.65 8.32146 74.7818C9.95382 75.6193 11.6489 75.9993 13.4061 75.9993C13.9084 75.9993 14.5355 75.9233 15.0384 75.8465C17.1104 75.5425 19.2444 74.7065 21.3164 73.261C23.89 71.5108 26.3383 69.0013 29.1 65.3496C31.8618 69.0013 34.3728 71.5108 36.8837 73.261C38.9563 74.7065 41.0897 75.5425 43.161 75.8465C43.6634 75.9241 44.2917 75.9993 44.794 75.9993C46.5518 75.9993 48.309 75.6193 49.878 74.7818C54.2728 72.65 57.3481 67.7831 58.0392 62.1531C58.5377 59.4909 58.2869 56.8294 57.471 54.0137ZM29.1609 57.9694C25.7707 52.7962 23.5733 47.9277 22.8208 43.8208C22.5073 42.0705 22.4439 40.549 22.6327 39.1795C22.7575 37.962 23.135 36.8965 23.6373 35.9838C24.8301 33.9311 26.8387 32.6368 29.1615 32.6368C31.4849 32.6368 33.5563 33.8543 34.6863 35.9838C35.1886 36.8965 35.5649 37.9628 35.6916 39.1795C35.8791 40.5498 35.8164 42.1465 35.5028 43.8208C34.7472 47.8517 32.5498 52.7209 29.1609 57.9694ZM54.2063 61.5451C53.7673 65.5009 51.5699 68.9253 48.4946 70.4468C46.9883 71.2068 45.3553 71.4356 43.7242 71.2068C42.1552 70.978 40.5849 70.3693 38.9538 69.2293C36.6937 67.7063 34.4342 65.3496 31.7972 61.8491C35.9399 55.6879 38.4509 50.0572 39.3928 45.0375C39.8324 42.6785 39.8957 40.549 39.7063 38.57C39.4561 36.6685 38.8904 34.9183 38.0119 33.3968C36.0647 29.9723 32.8 27.9956 29.1603 27.9956C25.5205 27.9956 22.2558 30.0498 20.3099 33.3968C19.4313 34.9183 18.8656 36.6685 18.6148 38.57C18.364 40.549 18.426 42.7545 18.9284 45.0375C19.8696 50.0572 22.4433 55.7632 26.5233 61.9251C23.9496 65.4249 21.6268 67.7839 19.3667 69.3053C17.7344 70.4468 16.166 71.0556 14.5969 71.2828C12.9025 71.5116 11.2695 71.2068 9.82591 70.5228C6.75057 69.0013 4.55318 65.5768 4.11421 61.6211C3.92608 59.7196 4.05087 57.8182 4.67923 55.6879C4.86674 54.9264 5.18154 54.1664 5.4951 53.2537C5.9347 52.0362 6.43576 50.7419 6.9387 49.4492L7.00205 49.298C11.3329 37.962 15.9778 26.3989 20.8116 15.1404L20.9997 14.6829C21.5026 13.543 22.005 12.3255 22.5067 11.184C23.009 9.96648 23.5733 8.82498 24.2644 7.83547C25.5826 6.01151 27.3398 5.02125 29.2863 5.02125C31.2328 5.02125 32.99 6.01151 34.3082 7.83547C34.9993 8.82726 35.5636 9.96876 36.066 11.184C36.5689 12.3255 37.0712 13.543 37.5723 14.6829L37.761 15.1404C42.5211 26.4456 47.1044 37.8589 51.5085 49.374V49.45C52.0114 50.669 52.4504 52.037 52.9527 53.256C53.2663 54.1672 53.5804 54.9272 53.7686 55.6887C54.2696 57.6647 54.4578 59.5677 54.2063 61.5451Z" fill="#AFAFAF"/>
</g>
<defs>
<clipPath id="clip0_217_22">
<rect width="201" height="76" fill="white"/>
</clipPath>
</defs>
</svg>
