<svg width="147" height="39" viewBox="0 0 147 39" fill="none" xmlns="http://www.w3.org/2000/svg">
<path d="M33.0011 9.56714V21.6356C33.0011 21.8312 32.913 22.0188 32.7561 22.1572C32.5993 22.2955 32.3866 22.3732 32.1648 22.3732H27.8454C27.6237 22.3731 27.411 22.2954 27.2542 22.1571C27.0974 22.0188 27.0092 21.8312 27.0091 21.6356V2.00566C27.0091 1.81003 27.0973 1.62242 27.2541 1.48409C27.4109 1.34576 27.6236 1.26805 27.8454 1.26805H31.8425C32.0643 1.26805 32.277 1.34576 32.4339 1.48409C32.5907 1.62242 32.6788 1.81003 32.6788 2.00566V4.77007C32.6788 4.77007 34.1077 0.826721 38.3481 0.826721C38.3481 0.826721 42.5425 0.379537 44.2479 4.4855C44.2479 4.4855 45.6767 0.826721 50.0094 0.826721C50.0094 0.826721 56.4526 0.488812 56.4526 6.3692L56.5017 9.60779V21.6762C56.5017 21.8719 56.4136 22.0595 56.2567 22.1978C56.0999 22.3361 55.8872 22.4139 55.6654 22.4139H51.3457C51.1239 22.4138 50.9112 22.336 50.7544 22.1977C50.5976 22.0594 50.5095 21.8718 50.5094 21.6762L50.4699 8.51016C50.5927 5.52882 47.8582 5.74575 47.8582 5.74575C44.4168 5.80006 44.7479 9.60779 44.7479 9.60779V21.6762C44.7479 21.8719 44.6598 22.0595 44.5029 22.1978C44.3461 22.3361 44.1334 22.4139 43.9116 22.4139H39.5922C39.3705 22.4138 39.1578 22.336 39.001 22.1977C38.8442 22.0594 38.756 21.8718 38.7559 21.6762V8.80807C38.7559 8.80807 39.0085 5.71843 35.9355 5.71843C35.9359 5.71843 32.8938 5.36621 33.0011 9.56714ZM144.343 9.53104V21.5992C144.342 21.7948 144.254 21.9823 144.097 22.1206C143.941 22.2589 143.728 22.3367 143.506 22.3368L139.014 22.4135C138.792 22.4134 138.579 22.3357 138.423 22.1974C138.266 22.0591 138.178 21.8715 138.178 21.6759V8.80807C138.178 8.80807 138.43 5.71843 135.358 5.71843C135.358 5.71843 132.423 5.59094 132.423 10.4352V21.6353C132.423 21.8309 132.335 22.0184 132.178 22.1567C132.021 22.295 131.808 22.3728 131.586 22.3729H127.267C127.045 22.3728 126.832 22.295 126.676 22.1567C126.519 22.0184 126.431 21.8309 126.43 21.6353V2.00566C126.431 1.81006 126.519 1.6225 126.676 1.48419C126.832 1.34588 127.045 1.26814 127.267 1.26805H131.264C131.486 1.26805 131.698 1.34576 131.855 1.48409C132.012 1.62242 132.1 1.81003 132.1 2.00566V4.77007C132.1 4.77007 133.529 0.826721 137.769 0.826721C137.769 0.826721 142.312 0.218876 143.842 4.40907C143.842 4.40875 144.343 5.2732 144.343 9.53104ZM113.155 0.745415C107.631 0.745415 103.153 4.85138 103.153 11.7624C103.153 17.847 106.61 22.7794 113.155 22.7794C119.331 22.7794 123.157 17.847 123.157 11.7624C123.157 4.97334 118.679 0.745415 113.155 0.745415ZM116.641 12.0063C116.641 14.6081 116.273 15.9903 116.273 15.9903C115.748 18.7408 113.484 18.7447 113.15 18.73C112.79 18.7427 110.507 18.7141 110.035 15.9903C110.035 15.9903 109.666 14.6081 109.666 12.0063V11.5728C109.666 8.971 110.035 7.5888 110.035 7.5888C110.507 4.86504 112.791 4.83642 113.15 4.84878C113.484 4.83414 115.748 4.83772 116.273 7.5888C116.273 7.5888 116.641 8.971 116.641 11.5728V12.0063ZM100.646 4.74275V1.92631C100.646 1.73071 100.558 1.54314 100.401 1.40483C100.244 1.26652 100.031 1.18878 99.8096 1.1887H85.5322C85.3104 1.1887 85.0977 1.26641 84.9408 1.40474C84.784 1.54307 84.6959 1.73068 84.6959 1.92631V4.72096C84.696 4.91656 84.7841 5.10413 84.941 5.24244C85.0978 5.38075 85.3104 5.45849 85.5322 5.45857H92.9795L84.1646 16.7374C84.1646 16.7374 83.8172 17.1946 83.8286 17.6997V21.1305C83.8286 21.1305 83.7711 22.3069 85.2837 21.6242C85.2837 21.6242 87.9703 20.1926 92.4751 20.1926C92.4751 20.1926 96.9239 20.1438 99.89 21.7475C99.89 21.7475 101.121 22.2412 101.121 21.1556V18.1693C101.121 18.1693 101.233 17.379 100.058 16.8857C100.058 16.8857 96.644 15.2322 92.1672 15.5035L100.646 4.74275ZM23.6754 18.8627L22.3233 17.0473C21.8929 16.3695 21.9239 15.6105 21.9239 15.6105V7.23625C22.1083 -1.22056e-06 13.0127 0.623455 13.0127 0.623455C4.92708 0.623455 3.73275 6.17342 3.73275 6.17342C3.39572 7.28927 4.37582 7.31626 4.37582 7.31626L8.32682 7.66978C8.32682 7.66978 9.0005 7.80572 9.24571 7.09836C9.24571 7.09836 9.76599 4.67706 12.6757 4.67706C15.8416 4.67706 15.8088 7.07364 15.8088 7.07364V9.07995C9.4887 9.26631 6.55984 10.8137 6.55984 10.8137C2.65752 12.7651 2.90309 16.6408 2.90309 16.6408C2.90309 22.9554 9.72469 22.6841 9.72469 22.6841C14.0879 22.6841 16.6691 19.8657 16.6691 19.8657C17.4372 21.0586 18.8509 22.1963 18.8509 22.1963C19.5581 22.8727 20.2952 22.3049 20.2952 22.3049L23.491 19.893C24.1975 19.4319 23.6754 18.8627 23.6754 18.8627ZM11.8541 18.7847C9.80176 18.7847 9.03884 16.9858 9.37956 15.2179C9.72064 13.45 11.492 12.0606 15.8092 12.1013V13.1762C15.9622 17.8718 13.5625 18.7847 11.8541 18.7847ZM81.0749 18.8627L79.7231 17.0473C79.2928 16.3695 79.3234 15.6105 79.3234 15.6105V7.23625C79.5078 -1.22056e-06 70.4122 0.623455 70.4122 0.623455C62.3266 0.623455 61.1323 6.17342 61.1323 6.17342C60.7952 7.28927 61.7753 7.31626 61.7753 7.31626L65.7263 7.66978C65.7263 7.66978 66.4 7.80572 66.6452 7.09836C66.6452 7.09836 67.1655 4.67706 70.0752 4.67706C73.2412 4.67706 73.2083 7.07364 73.2083 7.07364V9.07995C66.8886 9.26631 63.9594 10.8137 63.9594 10.8137C60.057 12.7651 60.3026 16.6408 60.3026 16.6408C60.3026 22.9554 67.1242 22.6841 67.1242 22.6841C71.4874 22.6841 74.0686 19.8657 74.0686 19.8657C74.837 21.0586 76.25 22.1963 76.25 22.1963C76.9573 22.8727 77.6947 22.3049 77.6947 22.3049L80.8902 19.893C81.5971 19.4319 81.0749 18.8627 81.0749 18.8627ZM69.2537 18.7847C67.2013 18.7847 66.4384 16.9858 66.7791 15.2179C67.1202 13.45 68.8916 12.0606 73.2083 12.1013V13.1762C73.3617 17.8718 70.9624 18.7847 69.2537 18.7847Z" fill="#AFAFAF"/>
<path d="M91.9511 34.7135C91.9511 34.7135 91.5898 35.268 92.0337 35.3919C92.0337 35.3919 92.5352 35.5646 93.1606 35.0527C93.1606 35.0527 97.7215 31.5387 97.8313 25.1408C97.8313 25.1408 97.8649 24.3418 97.5013 24.1232C97.5013 24.1232 96.0725 23.0083 90.9345 23.3476C90.9345 23.3476 86.4559 23.6142 84.0108 25.5288C84.0108 25.5288 83.791 25.6983 83.791 25.9162C83.791 25.9162 83.7383 26.3868 85.0823 26.1829C85.0823 26.1829 89.5606 25.6251 92.2258 25.9162C92.2258 25.9162 93.6001 26.0616 93.9847 26.4739C93.9847 26.4739 94.6167 26.9345 94.2867 28.4607C94.2867 28.4614 93.3796 32.3387 91.9511 34.7135Z" fill="#AFAFAF"/>
<path d="M91.0481 28.5756C91.0481 28.5756 91.717 29.3399 90.6377 29.9991C90.6377 29.9991 79.1085 38.133 59.7499 38.133C59.7499 38.133 39.8227 39 23.1835 25.6658C23.1835 25.6658 22.6002 25.2141 22.9623 24.7942C22.9623 24.7942 23.286 24.4078 24.1242 24.828C24.1242 24.828 39.7766 33.4305 60.3336 33.4305C60.3336 33.4305 74.6221 33.9184 89.2793 28.3896C89.2793 28.3896 90.4471 27.8559 91.0481 28.5756Z" fill="#AFAFAF"/>
</svg>
