<svg width="103" height="31" viewBox="0 0 103 31" fill="none" xmlns="http://www.w3.org/2000/svg">
<g clip-path="url(#clip0_217_52)">
<path d="M102.366 26.9689C102.366 25.246 101.241 23.9844 99.6905 23.9844C98.143 23.9844 97.0165 25.246 97.0165 26.9689C97.0165 28.689 98.143 29.9484 99.6905 29.9484C101.241 29.9484 102.366 28.6869 102.366 26.9689ZM98.9876 27.1219V29.0713H98.4076V24.7728H99.8489C100.693 24.7728 101.081 25.1733 101.081 25.954C101.081 26.4349 100.782 26.8158 100.396 26.871V26.8892C100.731 26.9472 100.854 27.2715 100.923 27.8649C100.975 28.2493 101.046 28.9161 101.172 29.0727H100.486C100.326 28.6687 100.342 28.097 100.219 27.6182C100.117 27.254 99.9384 27.1212 99.5541 27.1212H98.9908V27.1233L98.9876 27.1219ZM99.7066 26.5663C100.27 26.5663 100.431 26.2406 100.431 25.9533C100.431 25.6136 100.27 25.3452 99.7066 25.3452H98.9876V26.5677H99.7066V26.5663ZM96.3785 26.9689C96.3785 24.8462 97.9306 23.4113 99.688 23.4113C101.451 23.4113 103.001 24.8462 103.001 26.9689C103.001 29.0874 101.451 30.5237 99.688 30.5237C97.9306 30.5237 96.3785 29.0874 96.3785 26.9689Z" fill="#AFAFAF"/>
<path d="M84.909 29.9037L81.0936 25.2579L77.3116 29.9037H69.3537L77.1314 20.4163L69.3537 10.9261H77.5601L81.4142 15.5363L85.1227 10.9261H93.042L85.303 20.3765L93.1495 29.9037H84.909ZM54.0727 29.9037V0.00793457H69.3537V6.67164H60.5455V10.9261H69.3537V17.3382H60.5455V23.2233H69.3537V29.9037H54.0727Z" fill="#AFAFAF"/>
<path d="M47.6237 0.00793457V12.2429H47.5523C46.1251 10.462 44.3413 9.84133 42.273 9.84133C38.0346 9.84133 34.8417 12.9719 33.7209 17.1075C32.4425 12.5497 29.1459 9.75606 24.2586 9.75606C20.2887 9.75606 17.155 11.69 15.5179 14.8423V10.9254H7.31351V6.67234H16.2679V0.00933435H0V29.9037H7.31351V17.3382H14.6032C14.3786 18.3044 14.2664 19.2974 14.2691 20.294C14.2691 26.5271 18.6562 30.9074 24.2573 30.9074C28.9656 30.9074 32.071 28.5051 33.7119 24.1319H27.4438C26.5967 25.448 25.9529 25.8366 24.258 25.8366C22.2933 25.8366 20.5977 23.9746 20.5977 21.7702H33.3604C33.914 26.7221 37.4675 30.992 42.3444 30.992C44.4482 30.992 46.3742 29.8688 47.5516 27.9712H47.6224V29.9079H54.0708V0.00933435H47.6237V0.00793457ZM20.8011 17.4276C21.2086 15.5279 22.5649 14.2866 24.258 14.2866C26.1222 14.2866 27.4097 15.4895 27.7477 17.4276H20.8011ZM43.7104 25.3543C41.3344 25.3543 39.8577 22.9507 39.8577 20.4401C39.8577 17.7561 41.1426 15.1777 43.7104 15.1777C46.3749 15.1777 47.4364 17.7575 47.4364 20.4401C47.4364 22.9828 46.3124 25.3543 43.7104 25.3543Z" fill="#AFAFAF"/>
</g>
<defs>
<clipPath id="clip0_217_52">
<rect width="103" height="31" fill="white"/>
</clipPath>
</defs>
</svg>
