<svg width="212" height="77" viewBox="0 0 212 77" fill="none" xmlns="http://www.w3.org/2000/svg">
<g clip-path="url(#clip0_217_25)">
<path d="M77.2464 29.1875C76.6513 28.9324 75.4509 28.69 74.2606 28.69C70.6796 28.69 66.8969 32.2109 66.8969 36.7396V58.1327H58.7364V20.1302H66.4935V23.9062C68.289 21.138 71.6682 19.3776 75.2492 19.3776C76.4394 19.3776 77.0447 19.6327 78.0332 19.6327L77.2464 29.1875ZM86.4056 0C89.1897 0 91.5804 2.76822 91.5804 6.54423C91.5804 10.3202 89.1897 13.0885 86.2039 13.0885C83.218 13.0885 80.8274 10.3202 80.8274 6.54423C81.0291 2.76822 83.4198 0 86.4056 0ZM90.38 58.1327H82.2194V20.1302H90.38V58.1327ZM114.256 19.3776C110.877 19.3776 107.891 20.8829 105.501 23.1536V20.1302H97.5419V77H105.702V55.3645C108.093 57.6352 110.675 58.8854 113.863 58.8854C118.241 58.8854 122.619 56.3723 125.201 52.3411C127.592 48.8202 128.984 44.2916 128.984 39.0103C128.984 27.9374 122.417 19.3776 114.256 19.3776ZM113.268 49.5729C108.295 49.5729 104.916 45.2994 104.916 39.0103C104.916 32.7212 108.295 28.4476 113.268 28.4476C117.646 28.4476 121.025 33.2314 121.025 39.0103C121.025 45.0442 117.444 49.5729 113.268 49.5729ZM169.968 2.27071H178.129V58.1327H169.968V2.27071ZM210.962 52.086C207.977 56.3595 203.205 58.8854 198.626 58.8854C189.668 58.8854 182.91 51.091 182.91 39.0103C182.91 28.4476 188.68 19.1352 197.637 19.1352C205.989 19.1352 211.961 27.9374 211.961 38.5128C211.961 39.5205 211.961 40.5283 211.759 41.5361H190.667C191.06 46.8174 194.45 50.5934 198.828 50.5934C202.207 50.5934 204.991 48.0804 206.393 46.3199L210.962 52.086ZM203.397 34.2265C203.195 30.9607 200.815 27.4271 197.425 27.4271C194.036 27.4271 191.262 30.6928 191.06 34.2265H203.397ZM150.469 19.3776C147.09 19.3776 144.104 20.8829 141.714 23.1536V20.1302H133.957V77H142.117V55.3645C144.508 57.6352 147.09 58.8854 150.278 58.8854C154.656 58.8854 159.034 56.3723 161.616 52.3411C164.007 48.8202 165.399 44.2916 165.399 39.0103C165.197 27.9374 158.63 19.3776 150.469 19.3776ZM149.481 49.5729C144.508 49.5729 141.129 45.2994 141.129 39.0103C141.129 32.7212 144.508 28.4476 149.481 28.4476C153.859 28.4476 157.238 33.2314 157.238 39.0103C157.238 45.0442 153.657 49.5729 149.481 49.5729Z" fill="#AFAFAF"/>
<mask id="mask0_217_25" style="mask-type:luminance" maskUnits="userSpaceOnUse" x="0" y="4" width="48" height="66">
<path d="M31.4908 6.28917C28.1116 8.80226 26.1144 13.3309 26.1144 18.1147C26.1144 20.6278 26.9113 23.1537 27.9099 25.4116C28.7068 27.4272 29.1002 30.9481 26.3161 32.7085C24.3289 34.2138 21.7365 33.206 20.5462 30.6929C19.3559 28.6773 17.9639 26.6618 16.1684 25.1565C12.7892 22.6434 8.80471 22.6434 5.42549 25.1565C2.04628 27.6696 0.0490112 32.211 0.0490112 36.9948C0.0490112 41.7786 2.03619 46.3072 5.42549 48.8203C8.80471 51.3334 12.7892 51.3334 16.1684 48.8203C17.9639 47.5574 19.3559 45.5546 20.3445 43.2839C21.1414 41.5234 23.3303 39.2527 26.1144 41.2683C28.1015 42.7736 28.6967 46.0521 27.7081 48.5652C26.7095 50.8359 26.1144 53.349 26.1144 55.8621C26.1144 60.6459 28.1015 65.1745 31.4908 67.6876C34.8701 70.2007 38.8545 70.2007 42.2337 67.6876C45.6129 65.1745 47.6102 60.6459 47.6102 55.8621C47.6102 51.0783 45.623 46.5496 42.2337 44.0365C40.4382 42.7736 38.451 42.2761 36.2621 42.2761C34.4666 42.2761 32.086 40.7708 32.086 36.9948C32.086 33.9714 33.8815 31.7135 36.2621 31.7135C38.2493 31.7135 40.4382 31.2159 42.2337 29.953C45.6129 27.4399 47.6102 22.9113 47.6102 18.1275C47.6102 13.3437 45.623 8.81502 42.2337 6.30193C40.6399 5.03901 38.6528 4.54149 36.8572 4.54149C35.0718 4.52874 33.0745 5.03901 31.4908 6.28917" fill="white"/>
</mask>
<g mask="url(#mask0_217_25)">
<path d="M23.9254 -25.6665L73.6655 37.4924L23.9254 100.396L-26.0164 37.4924L23.9254 -25.6665Z" fill="url(#paint0_linear_217_25)"/>
</g>
</g>
<defs>
<linearGradient id="paint0_linear_217_25" x1="9.58249" y1="19.3519" x2="53.5779" y2="54.1405" gradientUnits="userSpaceOnUse">
<stop stop-color="#AFAFAF"/>
<stop offset="0.594" stop-color="#AFAFAF"/>
<stop offset="1" stop-color="#AFAFAF"/>
</linearGradient>
<clipPath id="clip0_217_25">
<rect width="212" height="77" fill="white"/>
</clipPath>
</defs>
</svg>
