<svg width="108" height="36" viewBox="0 0 108 36" fill="none" xmlns="http://www.w3.org/2000/svg">
<mask id="mask0_217_42" style="mask-type:luminance" maskUnits="userSpaceOnUse" x="0" y="0" width="108" height="36">
<path d="M0 0H108V36H0V0Z" fill="white"/>
</mask>
<g mask="url(#mask0_217_42)">
<path fill-rule="evenodd" clip-rule="evenodd" d="M11.2728 16.1937C8.94529 15.5019 7.66973 14.9638 7.66973 14.1182C7.66973 13.4007 8.40316 12.9908 9.71053 12.9908C12.1019 12.9908 14.5569 13.7339 16.2469 14.4L17.2034 9.65987C15.8643 9.14735 13.1221 8.30179 9.32791 8.30179C6.64957 8.30179 4.41746 8.86543 2.82336 9.91603C1.16518 11.0177 0.30429 12.6064 0.30429 14.5281C0.30429 18.0128 2.95082 19.499 7.2553 20.7545C10.0293 21.5487 10.954 22.1126 10.954 22.9837C10.954 23.8292 10.0611 24.316 8.43497 24.316C6.42621 24.316 3.11033 23.5218 0.94207 22.4969L-0.0144806 27.2883C1.83477 28.1339 5.27835 29.005 8.84963 29.005C11.6872 29.005 14.0468 28.4669 15.6411 27.442C17.4265 26.3146 18.3513 24.6492 18.3513 22.4969C18.3513 18.9352 15.6411 17.4491 11.2728 16.1937ZM33.9232 13.4007L34.8798 8.68614H29.8299V2.96289L23.0403 3.86072L22.0598 8.68614L19.6718 8.99745L18.7779 13.4007H22.05V22.6506C22.05 25.0591 22.8153 26.7247 24.3775 27.7495C25.6849 28.5951 27.566 29.005 30.2125 29.005C32.2531 29.005 33.4966 28.7232 34.3575 28.5438V23.5473C33.8792 23.6499 32.7952 23.8292 32.0618 23.8292C30.4995 23.8292 29.8299 23.1887 29.8299 21.7282V13.4007H33.9232ZM49.0883 8.41076C46.8565 8.41076 45.0708 9.35239 44.3694 11.0435L43.8912 8.68614H36.9722V28.6206H44.8795V15.6812C45.8681 14.7074 47.2709 14.3554 49.184 14.3554C49.5987 14.3554 50.0449 14.3554 50.587 14.4322V8.56449C50.0449 8.46207 49.5666 8.41076 49.0883 8.41076ZM56.4858 6.71312C58.7815 6.71312 60.6308 5.2015 60.6308 3.35665C60.6308 1.48606 58.7815 0 56.4858 0C54.1581 0 52.3088 1.48606 52.3088 3.35665C52.3088 5.2015 54.1581 6.71312 56.4858 6.71312ZM52.5001 8.68614H60.4395V28.6206H52.5001V8.68614ZM82.9383 10.4797C81.5352 9.01917 79.5903 8.30179 77.1033 8.30179C74.8076 8.30179 72.7988 9.07048 70.9175 10.6847L70.5031 8.68614H63.5521V36L71.4597 34.9496V28.5438C72.6711 28.8512 73.9147 29.005 75.0307 29.005C77.0077 29.005 79.8773 28.5951 82.1092 26.6478C84.2454 24.7772 85.3296 21.882 85.3296 18.0641C85.3296 14.6819 84.5324 12.1197 82.9383 10.4797ZM76.3699 22.7786C75.7321 23.7524 74.7437 24.2649 73.5959 24.2649C72.7988 24.2649 72.0972 24.1367 71.4597 23.8805V14.4C72.7988 13.2727 74.0103 13.1445 74.4568 13.1445C76.4655 13.1445 77.4539 14.8869 77.4539 18.2947C77.4539 20.242 77.1033 21.7538 76.3699 22.7786ZM108 18.474C108 15.2968 107.139 12.7857 105.449 11.0177C103.727 9.22422 101.145 8.30179 97.8604 8.30179C91.1325 8.30179 86.9558 12.299 86.9558 18.7046C86.9558 22.2919 88.0716 24.9823 90.2717 26.6989C92.2486 28.2363 95.0864 29.005 98.7531 29.005C102.133 29.005 105.258 28.3645 107.235 27.3139L106.374 22.9581C104.429 23.8037 102.165 24.2649 99.614 24.2649C98.0836 24.2649 97.0314 24.0085 96.2661 23.4704C95.437 22.9068 94.9588 21.9844 94.7995 20.6776H107.904C107.936 20.3701 108 18.9352 108 18.474ZM94.7356 16.7829C94.9588 13.9388 95.9153 12.6064 97.7327 12.6064C99.5184 12.6064 100.443 13.9645 100.571 16.7829H94.7356Z" fill="#AFAFAF"/>
</g>
</svg>
