<svg width="179" height="49" viewBox="0 0 179 49" fill="none" xmlns="http://www.w3.org/2000/svg">
<g clip-path="url(#clip0_217_31)">
<path d="M157.209 16.4954C158.205 16.4954 159.026 15.8985 159.136 15.1272L160.12 2.30735C160.12 1.04023 158.832 0 157.212 0C155.593 0 154.306 1.04022 154.306 2.30757L155.29 15.1272C155.398 15.8982 156.218 16.4954 157.212 16.4954H157.209ZM151.195 20.4997C151.695 19.5065 151.657 18.3904 151.13 17.8945L141.984 10.5029C141.033 9.86844 139.607 10.6321 138.798 12.249C137.986 13.8637 138.13 15.6672 139.078 16.3019L149.206 21.7345C149.839 22.0049 150.702 21.4845 151.198 20.4921L151.195 20.4997ZM163.228 20.4928C163.727 21.4852 164.586 22.0058 165.219 21.7352L175.347 16.3026C176.301 15.6681 176.437 13.8644 175.632 12.2497C174.819 10.6344 173.391 9.86912 172.442 10.5036L163.296 17.8952C162.773 18.3904 162.734 19.5075 163.231 20.5003L163.228 20.4928ZM157.209 32.5094C158.205 32.5094 159.026 33.1013 159.136 33.8733L160.12 46.6913C160.12 47.9623 158.832 49.0002 157.212 49.0002C155.593 49.0002 154.306 47.9623 154.306 46.6913L155.29 33.8733C155.398 33.1013 156.218 32.5094 157.212 32.5094H157.209ZM163.228 28.5042C163.727 27.5091 164.586 26.9931 165.219 27.2666L175.347 32.6956C176.301 33.3307 176.437 35.136 175.632 36.7522C174.819 38.3621 173.391 39.1295 172.442 38.4959L163.296 31.1112C162.773 30.6121 162.734 29.4944 163.231 28.5022H163.227M151.195 28.5029C151.695 29.4944 151.657 30.6121 151.13 31.1121L141.984 38.4966C141.033 39.1302 139.607 38.3628 138.798 36.7529C137.986 35.1367 138.13 33.3314 139.078 32.6963L149.206 27.2673C149.839 26.9938 150.702 27.5098 151.198 28.5051H151.195" fill="#AFAFAF"/>
<path d="M99.518 31.0879C99.518 31.4813 99.4876 31.887 99.3941 32.2434C99.0062 33.7234 97.6761 34.975 96.0121 34.975C94.6246 34.975 93.5226 34.067 93.5226 32.1491C93.5226 29.214 96.3267 28.4034 99.5188 28.4237L99.518 31.0877V31.0879ZM104.525 25.9727C104.525 21.1328 102.73 16.874 96.6644 16.874C93.551 16.874 91.08 17.8815 89.7312 18.7794L90.719 22.6705C91.9517 21.7739 93.9163 21.0317 95.7754 21.0317C98.8519 21.0218 99.3558 23.0389 99.3558 24.3298V24.6354C92.6495 24.624 88.4102 27.2993 88.4102 32.7493C88.4102 36.0795 90.5694 39.1986 94.3226 39.1986C96.6289 39.1986 98.5605 38.138 99.7165 36.4375H99.8307C99.8307 36.4375 100.596 40.1295 104.818 38.7169C104.598 37.1815 104.526 35.5425 104.526 33.5716L104.525 25.9727M0.0336914 10.2827C0.0336914 10.2827 4.41609 30.9715 5.11588 34.3291C5.93221 38.2482 7.40347 39.691 11.6433 38.7169L14.3796 25.8906C15.0734 22.7032 15.5378 20.4306 15.9848 17.1914H16.0626C16.3765 20.4649 16.8218 22.713 17.3928 25.9012C17.3928 25.9012 18.5061 31.7244 19.0772 34.782C19.649 37.8386 21.2403 39.7663 25.3938 38.7169L31.9141 10.2817H26.6513L24.4242 22.5762C23.8255 26.1534 23.2827 28.9518 22.8638 32.2237H22.7894C22.4088 28.9807 21.9242 26.2964 21.3162 22.8102L18.9994 10.2817H13.515L11.0354 22.4943C10.3337 26.2065 9.67556 29.2028 9.25866 32.3657H9.18283C8.75481 29.3873 8.18505 25.6201 7.56844 22.0284C7.56844 22.0284 6.09639 13.2929 5.57864 10.2817L0.0336914 10.2827ZM41.8693 31.0879C41.8693 31.4813 41.8389 31.887 41.744 32.2434C41.3569 33.7234 40.026 34.975 38.362 34.975C36.9743 34.975 35.8739 34.067 35.8739 32.1491C35.8739 29.214 38.6772 28.4034 41.8699 28.4237L41.8693 31.0877V31.0879ZM46.8754 25.9727C46.8754 21.1328 45.0804 16.874 39.0163 16.874C35.9021 16.874 33.429 17.8815 32.0811 18.7794L33.0677 22.6705C34.3002 21.7739 36.2648 21.0317 38.1245 21.0317C41.2032 21.0218 41.7071 23.0389 41.7071 24.3298V24.6354C34.998 24.624 30.7607 27.2993 30.7607 32.7493C30.7607 36.0795 32.9186 39.1986 36.6691 39.1986C38.9786 39.1986 40.909 38.138 42.0664 36.4375H42.1792C42.1792 36.4375 42.9462 40.1295 47.168 38.7169C46.9473 37.1815 46.8754 35.5425 46.8754 33.5716V25.9727ZM55.2305 32.6809V10.2827H50.2178V38.7178H55.2305V32.6809ZM120.806 10.2827V31.2587C120.806 34.1521 121.279 36.1769 122.289 37.4162C123.173 38.4996 124.627 39.2009 126.37 39.2009C127.852 39.2009 129.31 38.8749 129.998 38.581L129.933 34.0693C129.421 34.2134 128.834 34.33 128.029 34.33C126.321 34.33 125.75 33.0693 125.75 30.4731V22.4472H130.115V17.0059H125.75V10.2827H120.806ZM107.867 17.3563V38.7178H113.038V27.7803C113.038 27.1891 113.069 26.674 113.15 26.2028C113.533 23.9106 115.054 22.4472 117.238 22.4472C117.837 22.4472 118.265 22.5222 118.73 22.5982V17.0059C118.34 16.9165 118.076 16.8746 117.591 16.8746C115.661 16.8746 113.466 18.3092 112.544 21.3864H112.405V17.3563H107.867ZM58.7404 17.3563V38.7178H63.7783V26.1914C63.7783 25.6036 63.8382 24.9819 64.0149 24.4431C64.4324 23.1819 65.4512 21.7048 67.0769 21.7048C69.1108 21.7048 70.0605 23.6848 70.0605 26.5425V38.7162H75.0945V26.0372C75.0945 25.4764 75.161 24.8003 75.3049 24.3058C75.7182 22.8704 76.8157 21.7032 78.3272 21.7032C80.3881 21.7032 81.3773 23.6485 81.3773 27.0121V38.7155H86.4147V26.1335C86.4147 19.499 83.4904 16.8726 80.189 16.8726C78.7282 16.8726 77.574 17.2941 76.5302 18.0311C75.6537 18.6532 74.8676 19.5347 74.1817 20.6934H74.1072C73.3111 18.3913 71.4381 16.8737 68.9972 16.8737C65.8616 16.8737 64.4523 18.7051 63.5974 20.2581H63.5224V17.3556H58.7404" fill="#AFAFAF"/>
<path d="M177.887 37.6791H177.963C178.064 37.6791 178.128 37.6311 178.128 37.5597C178.128 37.4785 178.068 37.4344 177.974 37.4344C177.942 37.4344 177.909 37.4419 177.887 37.4419V37.6812V37.6789L177.887 37.6791ZM177.875 38.255H177.607V37.2498C177.668 37.2361 177.81 37.2116 177.991 37.2116C178.188 37.2116 178.277 37.2436 178.341 37.294C178.396 37.3379 178.436 37.4129 178.436 37.5142C178.436 37.6174 178.353 37.7047 178.232 37.7429V37.7557C178.331 37.7862 178.385 37.869 178.413 38.0142C178.44 38.1592 178.457 38.2184 178.474 38.2557H178.17C178.144 38.2184 178.128 38.1295 178.11 38.0407C178.093 37.9389 178.052 37.8879 177.962 37.8879H177.874L177.875 38.255ZM177.986 36.9223C177.601 36.9223 177.311 37.2832 177.311 37.7434C177.311 38.1917 177.602 38.5574 177.996 38.5574C178.392 38.565 178.683 38.1919 178.683 37.7361C178.683 37.2823 178.392 36.9223 177.992 36.9223H177.986ZM178.003 36.6494C178.539 36.6494 178.967 37.1357 178.967 37.7358C178.967 38.3431 178.539 38.83 177.996 38.83C177.452 38.83 177.02 38.3424 177.02 37.7361C177.02 37.1357 177.453 36.6496 177.996 36.6496H178.002" fill="#AFAFAF"/>
</g>
<defs>
<clipPath id="clip0_217_31">
<rect width="179" height="49" fill="white"/>
</clipPath>
</defs>
</svg>
